HIERARCHY
ROOT reference
{
  OFFSET -65.3212 -1.93545 -120.338
  CHANNELS 6 Xposition Yposition Zposition Zrotation Xrotation Yrotation
  JOINT Hips
  {
    OFFSET 0 78.7191 0
    CHANNELS 6 Xposition Yposition Zposition Zrotation Xrotation Yrotation
    JOINT Chest
    {
      OFFSET 0 8.7983 -4.7612
      CHANNELS 6 Xposition Yposition Zposition Zrotation Xrotation Yrotation
      JOINT Chest2
      {
        OFFSET 0 8.0291 0.4195
        CHANNELS 6 Xposition Yposition Zposition Zrotation Xrotation Yrotation
        JOINT Chest3
        {
          OFFSET 0 9.9351 -2.2114
          CHANNELS 6 Xposition Yposition Zposition Zrotation Xrotation Yrotation
          JOINT Neck
          {
            OFFSET 0 22.3885 -0.4656
            CHANNELS 6 Xposition Yposition Zposition Zrotation Xrotation Yrotation
            JOINT Head
            {
              OFFSET -0.0001 12.643 3.4389
              CHANNELS 6 Xposition Yposition Zposition Zrotation Xrotation Yrotation
              End Site
              {
                OFFSET 0.0001 17.6655 0.5274
              }
            }
          }
          JOINT LeftCollar
          {
            OFFSET 2.2603 21.606 7.4023
            CHANNELS 6 Xposition Yposition Zposition Zrotation Xrotation Yrotation
            JOINT LeftShoulder
            {
              OFFSET 13.5163 -1.1332 -5.0146
              CHANNELS 6 Xposition Yposition Zposition Zrotation Xrotation Yrotation
              JOINT LeftElbow
              {
                OFFSET -0.0995 -28.05 -0.2431
                CHANNELS 6 Xposition Yposition Zposition Zrotation Xrotation Yrotation
                JOINT LeftWrist
                {
                  OFFSET 0.0679 -23.3996 -0.1402
                  CHANNELS 6 Xposition Yposition Zposition Zrotation Xrotation Yrotation
                  JOINT LeftFinger1
                  {
                    OFFSET 0.7932 -9.069 2.5189
                    CHANNELS 6 Xposition Yposition Zposition Zrotation Xrotation Yrotation
                    JOINT LeftFinger11
                    {
                      OFFSET -0.8272 -3.3923 0.5977
                      CHANNELS 6 Xposition Yposition Zposition Zrotation Xrotation Yrotation
                      JOINT LeftFinger12
                      {
                        OFFSET -0.5649 -2.3158 0.4082
                        CHANNELS 6 Xposition Yposition Zposition Zrotation Xrotation Yrotation
                        End Site
                        {
                          OFFSET -0.4919 -1.6479 0.2673
                        }
                      }
                    }
                  }
                  JOINT LeftFinger2
                  {
                    OFFSET 0.9159 -9.2044 0.2193
                    CHANNELS 6 Xposition Yposition Zposition Zrotation Xrotation Yrotation
                    JOINT LeftFinger21
                    {
                      OFFSET 0.0117 -4.1944 -0.0248
                      CHANNELS 6 Xposition Yposition Zposition Zrotation Xrotation Yrotation
                      JOINT LeftFinger22
                      {
                        OFFSET 0.0071 -2.3249 -0.0142
                        CHANNELS 6 Xposition Yposition Zposition Zrotation Xrotation Yrotation
                        End Site
                        {
                          OFFSET -0.1475 -2.0882 0.0028
                        }
                      }
                    }
                  }
                  JOINT LeftFinger3
                  {
                    OFFSET 0.6113 -8.7231 -2.0637
                    CHANNELS 6 Xposition Yposition Zposition Zrotation Xrotation Yrotation
                    JOINT LeftFinger31
                    {
                      OFFSET -0.1927 -3.8059 -0.2383
                      CHANNELS 6 Xposition Yposition Zposition Zrotation Xrotation Yrotation
                      JOINT LeftFinger32
                      {
                        OFFSET -0.1091 -2.1688 -0.1362
                        CHANNELS 6 Xposition Yposition Zposition Zrotation Xrotation Yrotation
                        End Site
                        {
                          OFFSET -0.2358 -1.9176 -0.0906
                        }
                      }
                    }
                  }
                  JOINT LeftFinger4
                  {
                    OFFSET -0.6151 -8.0947 -3.5641
                    CHANNELS 6 Xposition Yposition Zposition Zrotation Xrotation Yrotation
                    JOINT LeftFinger41
                    {
                      OFFSET -0.4882 -2.341 -0.6462
                      CHANNELS 6 Xposition Yposition Zposition Zrotation Xrotation Yrotation
                      JOINT LeftFinger42
                      {
                        OFFSET -0.3575 -1.7167 -0.4742
                        CHANNELS 6 Xposition Yposition Zposition Zrotation Xrotation Yrotation
                        End Site
                        {
                          OFFSET -0.4187 -1.5237 -0.3496
                        }
                      }
                    }
                  }
                  JOINT LeftFinger0
                  {
                    OFFSET -1.42 -1.8761 1.4223
                    CHANNELS 6 Xposition Yposition Zposition Zrotation Xrotation Yrotation
                    JOINT LeftFinger01
                    {
                      OFFSET -1.1471 -3.4929 2.6334
                      CHANNELS 6 Xposition Yposition Zposition Zrotation Xrotation Yrotation
                      JOINT LeftFinger02
                      {
                        OFFSET -0.823 -2.3 1.6571
                        CHANNELS 6 Xposition Yposition Zposition Zrotation Xrotation Yrotation
                        End Site
                        {
                          OFFSET -0.5822 -1.6914 1.1582
                        }
                      }
                    }
                  }
                }
              }
            }
          }
          JOINT RightCollar
          {
            OFFSET -2.2603 21.606 7.4023
            CHANNELS 6 Xposition Yposition Zposition Zrotation Xrotation Yrotation
            JOINT RightShoulder
            {
              OFFSET -13.5187 -1.1334 -5.0155
              CHANNELS 6 Xposition Yposition Zposition Zrotation Xrotation Yrotation
              JOINT RightElbow
              {
                OFFSET 0.0994 -28.0499 -0.2431
                CHANNELS 6 Xposition Yposition Zposition Zrotation Xrotation Yrotation
                JOINT RightWrist
                {
                  OFFSET -0.0679 -23.3996 -0.1402
                  CHANNELS 6 Xposition Yposition Zposition Zrotation Xrotation Yrotation
                  JOINT RightFinger1
                  {
                    OFFSET -0.7932 -9.0691 2.5189
                    CHANNELS 6 Xposition Yposition Zposition Zrotation Xrotation Yrotation
                    JOINT RightFinger11
                    {
                      OFFSET 0.8272 -3.3923 0.5977
                      CHANNELS 6 Xposition Yposition Zposition Zrotation Xrotation Yrotation
                      JOINT RightFinger12
                      {
                        OFFSET 0.565 -2.3158 0.4082
                        CHANNELS 6 Xposition Yposition Zposition Zrotation Xrotation Yrotation
                        End Site
                        {
                          OFFSET 0.4919 -1.6479 0.2673
                        }
                      }
                    }
                  }
                  JOINT RightFinger2
                  {
                    OFFSET -0.916 -9.2044 0.2193
                    CHANNELS 6 Xposition Yposition Zposition Zrotation Xrotation Yrotation
                    JOINT RightFinger21
                    {
                      OFFSET -0.0117 -4.1944 -0.0248
                      CHANNELS 6 Xposition Yposition Zposition Zrotation Xrotation Yrotation
                      JOINT RightFinger22
                      {
                        OFFSET -0.0071 -2.3249 -0.0142
                        CHANNELS 6 Xposition Yposition Zposition Zrotation Xrotation Yrotation
                        End Site
                        {
                          OFFSET 0.1475 -2.0882 0.0028
                        }
                      }
                    }
                  }
                  JOINT RightFinger3
                  {
                    OFFSET -0.6113 -8.7231 -2.0637
                    CHANNELS 6 Xposition Yposition Zposition Zrotation Xrotation Yrotation
                    JOINT RightFinger31
                    {
                      OFFSET 0.1927 -3.8059 -0.2383
                      CHANNELS 6 Xposition Yposition Zposition Zrotation Xrotation Yrotation
                      JOINT RightFinger32
                      {
                        OFFSET 0.1091 -2.1688 -0.1362
                        CHANNELS 6 Xposition Yposition Zposition Zrotation Xrotation Yrotation
                        End Site
                        {
                          OFFSET 0.2358 -1.9176 -0.0906
                        }
                      }
                    }
                  }
                  JOINT RightFinger4
                  {
                    OFFSET 0.6151 -8.0947 -3.564
                    CHANNELS 6 Xposition Yposition Zposition Zrotation Xrotation Yrotation
                    JOINT RightFinger41
                    {
                      OFFSET 0.4882 -2.341 -0.6462
                      CHANNELS 6 Xposition Yposition Zposition Zrotation Xrotation Yrotation
                      JOINT RightFinger42
                      {
                        OFFSET 0.3574 -1.7166 -0.4742
                        CHANNELS 6 Xposition Yposition Zposition Zrotation Xrotation Yrotation
                        End Site
                        {
                          OFFSET 0.4187 -1.5237 -0.3496
                        }
                      }
                    }
                  }
                  JOINT RightFinger0
                  {
                    OFFSET 1.4199 -1.8761 1.4221
                    CHANNELS 6 Xposition Yposition Zposition Zrotation Xrotation Yrotation
                    JOINT RightFinger01
                    {
                      OFFSET 1.1472 -3.4929 2.6336
                      CHANNELS 6 Xposition Yposition Zposition Zrotation Xrotation Yrotation
                      JOINT RightFinger02
                      {
                        OFFSET 0.8229 -2.3 1.6571
                        CHANNELS 6 Xposition Yposition Zposition Zrotation Xrotation Yrotation
                        End Site
                        {
                          OFFSET 0.5822 -1.6914 1.1582
                        }
                      }
                    }
                  }
                }
              }
            }
          }
        }
      }
    }
    JOINT RightHip
    {
      OFFSET -9.412 3.9771 -0.7758
      CHANNELS 6 Xposition Yposition Zposition Zrotation Xrotation Yrotation
      JOINT RightKnee
      {
        OFFSET -0.7531 -40.938 0
        CHANNELS 6 Xposition Yposition Zposition Zrotation Xrotation Yrotation
        JOINT RightAnkle
        {
          OFFSET 0 -40.1986 0
          CHANNELS 6 Xposition Yposition Zposition Zrotation Xrotation Yrotation
          JOINT RightToe
          {
            OFFSET 0 -4.4182 9.239
            CHANNELS 6 Xposition Yposition Zposition Zrotation Xrotation Yrotation
            End Site
            {
              OFFSET 0 0 6.1981
            }
          }
        }
      }
    }
    JOINT LeftHip
    {
      OFFSET 9.4119 3.9773 -0.7758
      CHANNELS 6 Xposition Yposition Zposition Zrotation Xrotation Yrotation
      JOINT LeftKnee
      {
        OFFSET 0.7532 -40.9383 0
        CHANNELS 6 Xposition Yposition Zposition Zrotation Xrotation Yrotation
        JOINT LeftAnkle
        {
          OFFSET 0 -40.1986 0
          CHANNELS 6 Xposition Yposition Zposition Zrotation Xrotation Yrotation
          JOINT LeftToe
          {
            OFFSET 0 -4.4182 9.239
            CHANNELS 6 Xposition Yposition Zposition Zrotation Xrotation Yrotation
            End Site
            {
              OFFSET 0 0 6.1981
            }
          }
        }
      }
    }
  }
}
MOTION
Frames:	4
Frame Time:	0.0333333
-0.484114 -1.39029 0.0180305 0 0 -0 4.82947e-015 78.7191 0 1.38511 -10.3203 -1.19057 4.44089e-016 8.7983 -4.7612 0.176937 3.15648 0.315696 4.44089e-016 8.0291 0.4195 0.337188 6.31387 0.623032 0 9.9351 -2.2114 0.337189 6.31388 0.623033 0 22.3885 -0.4656 -0.351248 -1.45535 0.814226 -0.0001 12.643 3.4389 -0.0422914 -1.47351 -0.841353 2.2603 21.606 7.4023 -1.27259 -0.180852 -14.2228 13.5163 -1.1332 -5.0146 5.05837 -2.81481 19.4115 -0.0995 -28.05 -0.2431 -5.33964 -30.1735 16.7033 0.0679 -23.3996 -0.1402 1.14489 4.83256 -7.18712 0.7932 -9.069 2.5189 -1.233e-005 6.17506e-005 8.35497e-005 -0.8272 -3.3923 0.5977 2.17845e-005 4.21741e-005 -0.000149502 -0.5649 -2.3158 0.4082 -6.89603e-006 -7.42897e-005 -2.13914e-005 0.9159 -9.2044 0.2193 -9.60917e-006 3.82496e-005 -6.64973e-005 0.0117 -4.1944 -0.0248 -0.0128153 0.00239996 0.000149471 0.0071 -2.3249 -0.0142 -1.88595e-006 7.12099e-007 -1.00419e-005 0.6113 -8.7231 -2.0637 -2.62528e-005 6.30702e-005 -1.09651e-005 -0.1927 -3.8059 -0.2383 -0.0160146 0.00307383 0.000859195 -0.1091 -2.1688 -0.1362 2.89229e-005 0.000102732 6.11934e-006 -0.6151 -8.0947 -3.5641 4.03546e-005 6.47521e-006 -4.25764e-005 -0.4882 -2.341 -0.6462 -0.0126561 0.00306866 0.0027677 -0.3575 -1.7167 -0.4742 4.73295e-005 6.47116e-005 -1.57374e-005 -1.42 -1.8761 1.4223 3.07649e-005 2.88633e-005 -8.63517e-005 -1.1471 -3.4929 2.6334 -0.000105139 2.31122e-005 2.07032e-005 -0.823 -2.3 1.6571 -9.33629e-005 2.42262e-005 -5.40647e-006 -2.2603 21.606 7.4023 -4.2456 0.131182 7.92492 -13.5187 -1.1334 -5.0155 -4.03739 5.69687 -24.596 0.0994 -28.0499 -0.2431 7.83894 -33.0687 -10.3416 -0.0679 -23.3996 -0.1402 2.60746 4.82014 36.1668 -0.7932 -9.0691 2.5189 0.000112572 -5.49177e-005 -1.46235e-005 0.8272 -3.3923 0.5977 6.76023e-005 -2.86316e-005 9.10605e-006 0.565 -2.3158 0.4082 -6.33076e-005 -2.22347e-005 4.61797e-005 -0.916 -9.2044 0.2193 1.69765e-005 -6.88148e-005 5.1363e-006 -0.0117 -4.1944 -0.0248 0.0129378 0.00233719 -3.19216e-005 -0.0071 -2.3249 -0.0142 6.4754e-005 7.93242e-005 -4.29136e-005 -0.6113 -8.7231 -2.0637 -2.17754e-005 -9.85404e-005 -1.84154e-006 0.1927 -3.8059 -0.2383 0.0163192 0.00312853 -0.000841715 0.1091 -2.1688 -0.1362 4.36656e-005 -5.45248e-005 2.27788e-005 0.6151 -8.0947 -3.564 -5.64018e-006 -2.19305e-005 7.4546e-005 0.4882 -2.341 -0.6462 0.0145606 0.00363566 -0.00331087 0.3574 -1.7166 -0.4742 1.75394e-005 9.00413e-006 3.37244e-005 1.4199 -1.8761 1.4221 0.00400747 -0.00431554 -0.00113995 1.1472 -3.4929 2.6336 2.14478e-005 -0.000109575 4.54382e-005 0.8229 -2.3 1.6571 -3.12972e-005 -6.44118e-005 9.18884e-006 -9.412 3.9771 -0.7758 4.45602 7.42315 14.2399 -0.7531 -40.938 0 12.8132 47.2644 -12.4623 -2.22045e-016 -40.1986 0 0.681907 -12.3135 -10.6787 0 -4.4182 9.239 0.951483 6.45147 -0.424087 9.4119 3.9773 -0.7758 -8.47899 1.78417 3.58188 0.7532 -40.9383 0 -0.168023 8.60158 -0.543306 0 -40.1986 8.88178e-016 7.40815 -0.392283 0.757308 -1.11022e-016 -4.4182 9.239 0.000194675 -0.00144809 7.04047e-005 
-0.57112 -0.92157 0.307526 0 0 -0 4.77396e-015 78.7191 0 0.833541 -10.349 0.264431 -5.55112e-017 8.7983 -4.7612 0.240313 3.21571 -0.0741444 -1.11022e-016 8.0291 0.4195 0.485952 6.43105 -0.162205 6.66134e-016 9.9351 -2.2114 0.485953 6.43106 -0.162205 0 22.3885 -0.4656 0.125651 -1.63178 1.19256 -0.0001 12.643 3.4389 0.0381252 -1.58124 -0.68931 2.2603 21.606 7.4023 -1.2726 -0.180911 -14.2228 13.5163 -1.1332 -5.0146 5.58314 -3.52701 19.4262 -0.0995 -28.05 -0.2431 -5.48632 -30.6056 17.1017 0.0679 -23.3996 -0.1402 0.999401 4.65408 -7.29068 0.7932 -9.069 2.5189 0.202259 -0.12571 0.0111595 -0.8272 -3.3923 0.5977 -0.00305027 -0.0962837 -0.0328941 -0.5649 -2.3158 0.4082 0.202293 -0.125844 0.0110834 0.9159 -9.2044 0.2193 0.201436 -0.125934 0.0199723 0.0117 -4.1944 -0.0248 -0.0283802 -0.0842952 0.0212201 0.0071 -2.3249 -0.0142 0.201512 -0.126002 0.0200536 0.6113 -8.7231 -2.0637 0.195347 -0.134136 0.0260656 -0.1927 -3.8059 -0.2383 -0.0317111 -0.0917978 0.0378047 -0.1091 -2.1688 -0.1362 0.195454 -0.134063 0.0261128 -0.6151 -8.0947 -3.5641 0.195795 -0.132166 0.0326739 -0.4882 -2.341 -0.6462 -0.0158392 -0.0800405 0.0797442 -0.3575 -1.7167 -0.4742 0.195892 -0.132143 0.0326593 -1.42 -1.8761 1.4223 -0.0907166 -0.120435 0.0247695 -1.1471 -3.4929 2.6334 -0.0908576 -0.120406 0.0249833 -0.823 -2.3 1.6571 -0.101096 -0.134057 0.027742 -2.2603 21.606 7.4023 -4.0645 0.138603 7.74229 -13.5187 -1.1334 -5.0155 -4.24446 7.54502 -25.6171 0.0994 -28.0499 -0.2431 7.71404 -32.7549 -10.0398 -0.0679 -23.3996 -0.1402 2.75473 4.72852 34.7882 -0.7932 -9.0691 2.5189 0.0553591 0.0159485 -0.00271293 0.8272 -3.3923 0.5977 0.290745 0.0994243 -0.00492447 0.565 -2.3158 0.4082 0.293197 0.100224 -0.00495406 -0.916 -9.2044 0.2193 0.0411311 0.0123413 -0.00116077 -0.0117 -4.1944 -0.0248 0.323675 0.110103 0.00741653 -0.0071 -2.3249 -0.0142 0.313749 0.106747 0.00711099 -0.6113 -8.7231 -2.0637 0.0436447 0.016779 0.0025433 0.1927 -3.8059 -0.2383 0.318026 0.122661 0.0176489 0.1091 -2.1688 -0.1362 0.318884 0.122735 0.0176604 0.6151 -8.0947 -3.564 0.0215867 0.00796549 0.00173214 0.4882 -2.341 -0.6462 0.32995 0.122995 0.0275455 0.3574 -1.7166 -0.4742 0.350019 0.130575 0.0293815 1.4199 -1.8761 1.4221 -0.018248 0.0423584 0.0132958 1.1472 -3.4929 2.6336 -0.018381 0.042232 0.0133202 0.8229 -2.3 1.6571 -0.0184332 0.0423125 0.0132958 -9.412 3.9771 -0.7758 4.22189 1.07099 14.7897 -0.7531 -40.938 1.77636e-015 14.3268 49.6157 -13.6021 4.44089e-016 -40.1986 3.55271e-015 -3.20641 -12.6133 -11.2436 0 -4.4182 9.239 1.15385 7.77197 -0.524897 9.4119 3.9773 -0.7758 -7.82234 5.31721 3.70519 0.7532 -40.9383 8.88178e-016 -0.0972455 6.13234 -0.299754 2.22045e-016 -40.1986 -2.22045e-016 7.81929 -1.20152 -1.072 0 -4.4182 9.239 -0.367744 -0.0595075 0.00108859 
-0.634316 -0.525604 0.64387 0 0 -0 4.77396e-015 78.7191 0 -0.342403 -9.93679 1.79009 2.22045e-016 8.7983 -4.7612 0.313703 3.21976 -0.489885 0 8.0291 0.4195 0.656576 6.43666 -0.999821 7.63278e-017 9.9351 -2.2114 0.656577 6.43667 -0.999822 -2.22045e-016 22.3885 -0.4656 0.816566 -1.75032 1.34987 -0.0001 12.643 3.4389 0.708236 -1.91038 -0.197843 2.2603 21.606 7.4023 -1.27259 -0.18086 -14.2228 13.5163 -1.1332 -5.0146 6.74763 -4.455 19.545 -0.0995 -28.05 -0.2431 -6.29442 -31.6907 17.1862 0.0679 -23.3996 -0.1402 0.611182 4.18345 -7.56673 0.7932 -9.069 2.5189 0.765339 -0.475487 0.0442649 -0.8272 -3.3923 0.5977 -0.0220218 -0.362065 -0.128048 -0.5649 -2.3158 0.4082 0.765291 -0.475592 0.0441933 0.9159 -9.2044 0.2193 0.762334 -0.476017 0.0780756 0.0117 -4.1944 -0.0248 -0.0714048 -0.325969 0.0779579 0.0071 -2.3249 -0.0142 0.762457 -0.476164 0.0781557 0.6113 -8.7231 -2.0637 0.739417 -0.506974 0.101024 -0.1927 -3.8059 -0.2383 -0.0750303 -0.35666 0.138508 -0.1091 -2.1688 -0.1362 0.739563 -0.507046 0.10112 -0.6151 -8.0947 -3.5641 0.740877 -0.499311 0.125942 -0.4882 -2.341 -0.6462 -0.0244292 -0.312659 0.292262 -0.3575 -1.7167 -0.4742 0.722471 -0.479295 0.0996325 -1.42 -1.8761 1.4223 -0.343002 -0.455798 0.0933648 -1.1471 -3.4929 2.6334 -0.343151 -0.455881 0.0934167 -0.823 -2.3 1.6571 -0.381819 -0.507392 0.10374 -2.2603 21.606 7.4023 -3.60303 0.156779 7.28007 -13.5187 -1.1334 -5.0155 -4.2528 9.41137 -26.7146 0.0994 -28.0499 -0.2431 7.21924 -32.0025 -9.6022 -0.0679 -23.3996 -0.1402 3.10939 4.47065 31.2931 -0.7932 -9.0691 2.5189 0.20987 0.0607887 -0.0102925 0.8272 -3.3923 0.5977 1.10411 0.377364 -0.021417 0.565 -2.3158 0.4082 1.11351 0.380457 -0.0216529 -0.916 -9.2044 0.2193 0.156208 0.0470974 -0.00453909 -0.0117 -4.1944 -0.0248 1.22826 0.418102 0.0248213 -0.0071 -2.3249 -0.0142 1.19133 0.40539 0.0239997 -0.6113 -8.7231 -2.0637 0.165622 0.0638615 0.00966812 0.1927 -3.8059 -0.2383 1.20747 0.465934 0.0632224 0.1091 -2.1688 -0.1362 1.21053 0.466875 0.0633509 0.6151 -8.0947 -3.564 0.0820871 0.0302605 0.00624949 0.4882 -2.341 -0.6462 1.25208 0.467946 0.101168 0.3574 -1.7166 -0.4742 1.32893 0.496814 0.107216 1.4199 -1.8761 1.4221 -0.0697222 0.160879 0.0506014 1.1472 -3.4929 2.6336 -0.0697612 0.160758 0.0505371 0.8229 -2.3 1.6571 -0.0698965 0.160778 0.0505073 -9.412 3.9771 -0.7758 5.41668 -4.5606 16.2893 -0.7531 -40.938 -3.55271e-015 13.4976 47.6277 -12.1946 4.44089e-016 -40.1986 0 -5.2859 -11.7114 -10.9696 8.88178e-016 -4.4182 9.239 1.17907 7.93528 -0.5378 9.4119 3.9773 -0.7758 -6.21446 8.09012 3.57933 0.7532 -40.9383 2.22045e-016 -0.0588978 4.06965 -0.199844 -3.88578e-016 -40.1986 0 7.9212 -2.47226 -2.66798 8.32667e-017 -4.4182 9.239 -0.364308 0.101989 0.00189451 
-0.657797 -0.246048 1.04862 0 0 -0 4.77396e-015 78.7191 0 -0.928001 -9.75286 2.97056 4.44089e-016 8.7983 -4.7612 0.379386 3.2843 -0.837645 -4.44089e-016 8.0291 0.4195 0.808907 6.56261 -1.70128 -1.11022e-016 9.9351 -2.2114 0.808907 6.56261 -1.70128 5.55112e-017 22.3885 -0.4656 1.09492 -2.08698 1.31648 -0.0001 12.643 3.4389 1.36973 -2.07351 0.442157 2.2603 21.606 7.4023 -1.27261 -0.180989 -14.2228 13.5163 -1.1332 -5.0146 7.39096 -5.67729 19.4363 -0.0995 -28.05 -0.2431 -7.43794 -33.2402 17.2599 0.0679 -23.3996 -0.1402 0.0554254 3.5232 -7.962 0.7932 -9.069 2.5189 1.62026 -1.00567 0.101119 -0.8272 -3.3923 0.5977 -0.0515203 -0.763369 -0.278134 -0.5649 -2.3158 0.4082 1.62019 -1.00576 0.1011 0.9159 -9.2044 0.2193 1.61423 -1.0062 0.172833 0.0117 -4.1944 -0.0248 -0.136123 -0.69405 0.158678 0.0071 -2.3249 -0.0142 1.61456 -1.00645 0.17293 0.6113 -8.7231 -2.0637 1.56602 -1.07143 0.221619 -0.1927 -3.8059 -0.2383 -0.139767 -0.760842 0.285521 -0.1091 -2.1688 -0.1362 1.56643 -1.07162 0.221746 -0.6151 -8.0947 -3.5641 1.56935 -1.05479 0.274224 -0.4882 -2.341 -0.6462 -0.0364413 -0.670037 0.610107 -0.3575 -1.7167 -0.4742 1.56992 -1.05506 0.274317 -1.42 -1.8761 1.4223 -0.725197 -0.965401 0.194394 -1.1471 -3.4929 2.6334 -0.665002 -0.769832 0.169391 -0.823 -2.3 1.6571 -0.807012 -1.07471 0.215606 -2.2603 21.606 7.4023 -2.98962 0.17865 6.6727 -13.5187 -1.1334 -5.0155 -5.03555 11.3139 -27.9406 0.0994 -28.0499 -0.2431 6.54357 -31.0312 -9.02046 -0.0679 -23.3996 -0.1402 3.53053 4.07742 26.6861 -0.7932 -9.0691 2.5189 0.446051 0.12934 -0.0221747 0.8272 -3.3923 0.5977 2.34798 0.801854 -0.0542515 0.565 -2.3158 0.4082 2.36807 0.808371 -0.0549478 -0.916 -9.2044 0.2193 0.332171 0.100246 -0.0098157 -0.0117 -4.1944 -0.0248 2.61165 0.889517 0.0419944 -0.0071 -2.3249 -0.0142 2.5331 0.862497 0.0409254 -0.6113 -8.7231 -2.0637 0.352162 0.136023 0.0203565 0.1927 -3.8059 -0.2383 2.56704 0.992019 0.122648 0.1091 -2.1688 -0.1362 2.57359 0.994298 0.122832 0.6151 -8.0947 -3.564 0.174543 0.0643953 0.0131691 0.4882 -2.341 -0.6462 2.66144 0.997528 0.202933 0.3574 -1.7166 -0.4742 2.82492 1.05922 0.2141 1.4199 -1.8761 1.4221 -0.148582 0.342013 0.10774 1.1472 -3.4929 2.6336 -0.148673 0.341856 0.107668 0.8229 -2.3 1.6571 -0.148732 0.341891 0.107643 -9.412 3.9771 -0.7758 6.65532 -8.4378 17.5972 -0.7531 -40.938 3.55271e-015 9.40037 41.5951 -8.41497 -8.88178e-016 -40.1986 3.55271e-015 -4.75587 -9.92824 -11.8837 -8.88179e-016 -4.4182 9.239 1.14914 7.74138 -0.522461 9.4119 3.9773 -0.7758 -5.20936 10.6572 2.69185 0.7532 -40.9383 0 -0.0166499 2.96375 -0.042989 2.22045e-016 -40.1986 0 9.13177 -3.95366 -3.26939 0 -4.4182 9.239 -0.799135 0.218343 0.00933294 
